<?xml version="1.0" encoding="UTF-8"?>
<svg width="614px" height="62px" viewBox="0 0 614 62" version="1.1" xmlns="http://www.w3.org/2000/svg" xmlns:xlink="http://www.w3.org/1999/xlink">
    <!-- Generator: Sketch 57.1 (83088) - https://sketch.com -->
    <title>Button_LinkToStandard</title>
    <desc>Created with Sketch.</desc>
    <g id="Round-7" stroke="none" stroke-width="1" fill="none" fill-rule="evenodd">
        <g id="Mindmap_Assets" transform="translate(-215.000000, -1416.000000)">
            <g id="Button_LinkToStandard" transform="translate(215.000000, 1416.000000)">
                <rect id="Rectangle-Copy-2" fill="#090909" transform="translate(307.000000, 31.000000) scale(-1, 1) translate(-307.000000, -31.000000) " x="0" y="0" width="614" height="62" rx="13.4999996"></rect>
                <g id="Group-2" transform="translate(177.000000, 18.000000)">
                    <text id="LINK-TO-STANDARD" font-family="Trim-SemiBold, Trim" font-size="21.1152093" font-weight="500" fill="#FDFDFD">
                        <tspan x="18.1025932" y="22.2">LINK TO STANDARD</tspan>
                    </text>
                    <g id="Group-9" transform="translate(213.400005, 0.000000)">
                        <path d="M26.9500006,18.1500004 L26.9500006,23.2353005 C26.9500006,25.2780005 25.2780005,26.9500006 23.2353005,26.9500006 L4.26470009,26.9500006 C2.22200005,26.9500006 0.550000012,25.2780005 0.550000012,23.2353005 L0.550000012,4.26470009 C0.550000012,2.22200005 2.22200005,0.550000012 4.26470009,0.550000012 L9.3500002,0.550000012" id="Stroke-1" stroke="#FFFFFF" stroke-width="3.30000007" stroke-linecap="round" stroke-linejoin="round"></path>
                        <g id="Group-6" transform="translate(13.200000, 0.000000)">
                            <path d="M0.798160017,13.5018403 L13.4481603,0.851840018" id="Fill-3" fill="#FFFFFF"></path>
                            <path d="M0.798160017,13.5018403 L13.4481603,0.851840018" id="Stroke-5" stroke="#FFFFFF" stroke-width="3.30000007" stroke-linecap="round" stroke-linejoin="round"></path>
                        </g>
                        <polyline id="Stroke-7" stroke="#FFFFFF" stroke-width="3.30000007" stroke-linecap="round" stroke-linejoin="round" points="17.0500004 0.550000012 26.9500006 0.550000012 26.9500006 10.4500002"></polyline>
                    </g>
                </g>
            </g>
        </g>
    </g>
</svg>