<?xml version="1.0" encoding="UTF-8"?>
<svg width="878px" height="84px" viewBox="0 0 878 84" version="1.1" xmlns="http://www.w3.org/2000/svg" xmlns:xlink="http://www.w3.org/1999/xlink">
    <!-- Generator: Sketch 57.1 (83088) - https://sketch.com -->
    <title>Close_Container</title>
    <desc>Created with Sketch.</desc>
    <g id="Round-8" stroke="none" stroke-width="1" fill="none" fill-rule="evenodd">
        <g id="Mindmap_Assets" transform="translate(-282.000000, -2512.000000)">
            <g id="Close_Container" transform="translate(281.000000, 2512.000000)">
                <path d="M659,15 L827,15 C845.777681,15 861,30.2223185 861,49 L861,79.1269531 L861,79.1269531 L625,79.1269531 L625,49 C625,30.2223185 640.222319,15 659,15 Z" id="Rectangle" fill="#841F82" transform="translate(743.000000, 47.063477) scale(-1, 1) translate(-743.000000, -47.063477) "></path>
                <g id="Group" transform="translate(822.000000, 31.000000)" stroke="#FFFFFF" stroke-linecap="square" stroke-width="2.9399999">
                    <path d="M0.489999983,0.489999983 L23.0299992,23.0299992" id="Line-2"></path>
                    <path d="M0.489999983,0.489999983 L23.0299992,23.0299992" id="Line-2" transform="translate(11.760000, 11.760000) scale(-1, 1) translate(-11.760000, -11.760000) "></path>
                </g>
                <path d="M68.4462916,49.9492187 L68.4462916,16 C68.4462916,7.163444 75.6097356,7.66199701e-13 84.4462916,0 L815.491655,0 C849.733309,-6.29008989e-15 877.491655,27.7583455 877.491655,62 C877.491655,62.4967215 877.485685,62.9934251 877.473748,63.4900031 L877,83.1972656 L877,83.1972656 L0,83.1972656 L0,81.9492187 C-1.082166e-15,73.1126628 7.163444,65.9492187 16,65.9492187 L52.4462916,65.9492187 C61.2828476,65.9492187 68.4462916,58.7857747 68.4462916,49.9492187 Z" id="Rectangle" fill="#FFFFFF" transform="translate(439.500000, 41.598633) scale(-1, 1) translate(-439.500000, -41.598633) "></path>
            </g>
        </g>
    </g>
</svg>