<?xml version="1.0" encoding="UTF-8"?>
<svg preserveAspectRatio="none" width="879px" height="160px" viewBox="0 0 100 100" version="1.1" xmlns="http://www.w3.org/2000/svg" xmlns:xlink="http://www.w3.org/1999/xlink">
    <!-- Generator: sketchtool 57.1 (101010) - https://sketch.com -->
    <title>8270CB8D-F3B6-4184-96E6-C452727A8194</title>
    <desc>Created with sketchtool.</desc>
    <g id="Round-7" stroke="none" stroke-width="1" fill="none" fill-rule="evenodd">
        <g id="Mindmap_Assets" transform="translate(-281.000000, -2501.000000)">
            <g id="Top_Box_Standard" transform="translate(281.000000, 2501.000000)">
                <path d="M671.799999,26 L814.200001,26 C840.046927,26 861,46.9530732 861,72.7999988 L861,140.765625 L861,140.765625 L625,140.765625 L625,72.7999988 C625,46.9530732 645.953073,26 671.799999,26 Z" id="Rectangle" fill="#841F82" transform="translate(743.000000, 83.382813) scale(-1, 1) translate(-743.000000, -83.382813) "></path>
                <path d="M148.446292,82.3000008 L148.446292,29.6999992 C148.446292,13.2971426 161.743434,-3.53510774e-14 178.146291,0 L816.219005,0 C850.46066,-6.29008989e-15 878.219005,27.7583455 878.219005,62 C878.219005,62.2586996 878.217386,62.5173967 878.214148,62.7760761 L877,159.765625 L877,159.765625 L0,159.765625 L0,141.699999 C-2.00877059e-15,125.297143 13.2971426,112 29.6999992,112 L118.746292,112 C135.149149,112 148.446292,98.7028574 148.446292,82.3000008 Z" id="Rectangle" fill="#FFFFFF" transform="translate(439.500000, 79.882812) scale(-1, 1) translate(-439.500000, -79.882812) "></path>
                <g id="Group" transform="translate(775.000000, 55.000000)" stroke="#FFFFFF" stroke-linecap="square" stroke-width="4.19999993">
                    <path d="M0.699999988,0.699999988 L32.8999994,32.8999994" id="Line-2"></path>
                    <path d="M0.699999988,0.699999988 L32.8999994,32.8999994" id="Line-2" transform="translate(16.800000, 16.800000) scale(-1, 1) translate(-16.800000, -16.800000) "></path>
                </g>
            </g>
        </g>
    </g>
</svg>