<?xml version="1.0" encoding="UTF-8"?>
<svg width="879px" height="84px" viewBox="0 0 879 84" version="1.1" xmlns="http://www.w3.org/2000/svg" xmlns:xlink="http://www.w3.org/1999/xlink">
    <!-- Generator: sketchtool 57.1 (101010) - https://sketch.com -->
    <title>1511830D-8BA7-47D9-9C9A-93BAC5E91968</title>
    <desc>Created with sketchtool.</desc>
    <g id="Round-8" stroke="none" stroke-width="1" fill="none" fill-rule="evenodd">
        <g id="Mindmap_Assets" transform="translate(-281.000000, -1988.000000)">
            <g id="Top_Box_About" transform="translate(281.000000, 1988.000000)">
                <path d="M659,15 L827,15 C845.777681,15 861,30.2223185 861,49 L861,79.1269531 L861,79.1269531 L625,79.1269531 L625,49 C625,30.2223185 640.222319,15 659,15 Z" id="Rectangle" fill="#F7CF5B" transform="translate(743.000000, 47.063477) scale(-1, 1) translate(-743.000000, -47.063477) "></path>
                <path d="M68.4462916,49.9492187 L68.4462916,16 C68.4462916,7.163444 75.6097356,7.66199701e-13 84.4462916,0 L817,0 C851.241654,-6.29008989e-15 879,27.7583455 879,62 L879,83.1972656 L879,83.1972656 L0,83.1972656 L0,81.9492187 C-1.88457344e-14,73.1126628 7.163444,65.9492187 16,65.9492187 L52.4462916,65.9492187 C61.2828476,65.9492187 68.4462916,58.7857747 68.4462916,49.9492187 Z" id="Rectangle" fill="#FFFFFF" transform="translate(439.500000, 41.598633) scale(-1, 1) translate(-439.500000, -41.598633) "></path>
            </g>
        </g>
    </g>
</svg>