<?xml version="1.0" encoding="UTF-8"?>
<svg width="879px" height="129px" viewBox="0 0 879 129" version="1.1" xmlns="http://www.w3.org/2000/svg" xmlns:xlink="http://www.w3.org/1999/xlink">
    <!-- Generator: sketchtool 57.1 (101010) - https://sketch.com -->
    <title>B5829AAF-6DE2-4D81-BA91-0A9FF36DE5CA</title>
    <desc>Created with sketchtool.</desc>
    <g id="Round-7" stroke="none" stroke-width="1" fill="none" fill-rule="evenodd">
        <g id="Mindmap_Assets" transform="translate(-281.000000, -2123.000000)">
            <g id="Top_Box_01" transform="translate(281.000000, 2123.000000)">
                <path d="M659,26 L827,26 C845.777681,26 861,41.2223185 861,60 L861,128.8125 L861,128.8125 L625,128.8125 L625,60 C625,41.2223185 640.222319,26 659,26 Z" id="Rectangle" fill="#F7CF5B" transform="translate(743.000000, 77.406250) scale(-1, 1) translate(-743.000000, -77.406250) "></path>
                <path d="M78.4462916,58.3483945 L78.4462916,29 C78.4462916,12.9837423 91.4300338,1.21086479e-12 107.446292,1.70530257e-13 L816.029888,1.70530257e-13 C850.271542,2.10854709e-13 878.029888,27.7583455 878.029888,62 C878.029888,62.3208557 878.027397,62.6417065 878.022416,62.9625235 L877,128.8125 L877,128.8125 L0,128.8125 L0,116.348395 C2.68037594e-13,100.332137 12.9837423,87.3483945 29,87.3483945 L49.4462916,87.3483945 C65.4625493,87.3483945 78.4462916,74.3646523 78.4462916,58.3483945 Z" id="Rectangle" fill="#FFFFFF" transform="translate(439.500000, 64.406250) scale(-1, 1) translate(-439.500000, -64.406250) "></path>
            </g>
        </g>
    </g>
</svg>