<?xml version="1.0" encoding="UTF-8"?>
<svg width="196px" height="216px" viewBox="0 0 196 216" version="1.1" xmlns="http://www.w3.org/2000/svg" xmlns:xlink="http://www.w3.org/1999/xlink">
    <!-- Generator: Sketch 57.1 (83088) - https://sketch.com -->
    <title>Icon_Topic_06</title>
    <desc>Created with Sketch.</desc>
    <defs>
        <path d="M46.686419,27.9534211 L46.686419,10.6919993 C46.686419,4.78697112 51.4733901,-1.16740313e-13 57.3784183,0 L172.799993,0 C185.126988,-2.26443226e-15 195.119992,9.99300395 195.119992,22.319999 L195.119992,205.308001 C195.119992,211.213029 190.33302,216 184.427992,216 L10.6919993,216 C4.78697112,216 -1.05319946e-15,211.213029 0,205.308001 L0,49.3374196 C-3.34551666e-15,43.4323915 4.78697112,38.6454204 10.6919993,38.6454204 L35.9944198,38.6454204 C41.8994479,38.6454204 46.686419,33.8584492 46.686419,27.9534211 Z" id="path-1"></path>
    </defs>
    <g id="Round-7" stroke="none" stroke-width="1" fill="none" fill-rule="evenodd">
        <g id="Mindmap_Assets" transform="translate(-451.000000, -2064.000000)">
            <g id="Icon_Topic_06" transform="translate(450.000000, 2064.000000)">
                <g id="Group-2-Copy-7" transform="translate(98.500000, 107.999991) scale(1, -1) translate(-98.500000, -107.999991) translate(0.000000, -0.000009)">
                    <g id="Group" transform="translate(98.119992, 107.999991) scale(-1, -1) translate(-98.119992, -107.999991) translate(0.119992, -0.000009)">
                        <rect id="Rectangle" fill="#841F82" transform="translate(39.356589, 51.839998) scale(-1, 1) translate(-39.356589, -51.839998) " x="6.6518179" y="9.3599996" width="65.4095426" height="84.9599963" rx="16.8479988"></rect>
                        <g id="Colours/Red">
                            <mask id="mask-2" fill="white">
                                <use xlink:href="#path-1"></use>
                            </mask>
                            <use id="Mask" fill="#E4F8FF" xlink:href="#path-1"></use>
                            <g id="Colours/Purple" mask="url(#mask-2)" fill="#9E8DDD">
                                <g transform="translate(87.119996, 97.919996) scale(-1, -1) translate(-87.119996, -97.919996) translate(-20.879999, -20.159999)" id="Rectangle">
                                    <rect x="0" y="0" width="216.146431" height="236.15999"></rect>
                                </g>
                            </g>
                        </g>
                    </g>
                    <g id="arrow" transform="translate(156.519993, 183.599992)" stroke="#FFFFFF" stroke-linecap="round" stroke-width="1.71071988">
                        <path d="M0.551489338,6.58367971 L17.841446,6.58367971" id="Line"></path>
                        <path d="M13.1657137,0.666666638 L18.6018229,6.31999973" id="Line"></path>
                        <path d="M13.1657137,6.42666639 L18.6018229,12.0799995" id="Line" transform="translate(15.923160, 9.306666) scale(1, -1) translate(-15.923160, -9.306666) "></path>
                    </g>
                </g>
            </g>
        </g>
    </g>
</svg>