<svg width="100%" height="100%" viewBox="0 0 276 298" version="1.1" xmlns="http://www.w3.org/2000/svg" xmlns:xlink="http://www.w3.org/1999/xlink">
    <!-- Generator: Sketch 57.1 (83088) - https://sketch.com -->
    <title>Card_Result_Active</title>
    <desc>Created with Sketch.</desc>
    <g id="Round-6" stroke="none" stroke-width="1" fill="none" fill-rule="evenodd">
        <g id="Mindmap_Assets" transform="translate(-603.000000, -1156.000000)">
            <g id="Card_Result_Active" transform="translate(607.000000, 1160.000000)">
                <rect id="Rectangle" fill="#841F82" transform="translate(203.423295, 226.000000) scale(-1, 1) translate(-203.423295, -226.000000) " x="158" y="167" width="90.8465909" height="118" rx="23.3999994"></rect>
                <g id="Group-3-Copy" transform="translate(211.000000, 258.000000)" stroke="#FFFFFF" stroke-linecap="round" stroke-width="2.37599994">
                    <path d="M0.765957447,9.14399999 L22.5,9.5" id="Line"></path>
                    <path d="M15.2857143,0.925925926 L22.8358663,8.77777778" id="Line"></path>
                    <path d="M15.2857143,8.92592593 L22.8358663,16.7777778" id="Line" transform="translate(19.115502, 12.925926) scale(1, -1) translate(-19.115502, -12.925926) "></path>
                </g>
                <path d="M93.5859375,42.7890625 L93.5859375,30 C93.5859375,18.954305 102.540243,10 113.585938,10 L241,10 C255.911688,10 268,22.0883118 268,37 L268,267 C268,278.59798 258.59798,288 247,288 L25,288 C16.7157288,288 10,281.284271 10,273 L10,82.7890625 C10,71.7433675 18.954305,62.7890625 30,62.7890625 L73.5859375,62.7890625 C84.6316325,62.7890625 93.5859375,53.8347575 93.5859375,42.7890625 Z" id="Rectangle" stroke="#FFFFFF" stroke-width="6.5" transform="translate(139.000000, 149.000000) scale(-1, -1) translate(-139.000000, -149.000000) "></path>
                <path d="M74.078125,23.7007133 L74.078125,20 C74.078125,8.954305 83.03243,-3.91221655e-13 94.078125,0 L241,0 C255.911688,-2.73923269e-15 268,12.0883118 268,27 L268,261 C268,277.016258 255.016258,290 239,290 L15,290 C6.71572875,290 3.2348773e-14,283.284271 0,275 L0,63.7007133 C7.10528014e-15,52.6550183 8.954305,43.7007133 20,43.7007133 L54.078125,43.7007133 C65.12382,43.7007133 74.078125,34.7464083 74.078125,23.7007133 Z" id="Rectangle-Copy" stroke="#FFFFFF" stroke-width="6.5" transform="translate(134.000000, 145.000000) scale(-1, -1) translate(-134.000000, -145.000000) "></path>
                <path d="M87.0568454,47.0925092 L87.0568454,31.8499996 C87.0568454,23.6485713 93.7054167,17 101.906845,17 L237,17 C254.120827,17 268,30.8791728 268,48 L268,279.15 C268,287.351429 261.351429,294 253.15,294 L31.8499996,294 C23.6485713,294 17,287.351429 17,279.15 L17,76.7925084 C17,68.5910801 23.6485713,61.9425088 31.8499996,61.9425088 L72.2068458,61.9425088 C80.4082741,61.9425088 87.0568454,55.2939375 87.0568454,47.0925092 Z" id="Rectangle" fill="#FFFFFF" transform="translate(142.500000, 155.500000) scale(-1, -1) translate(-142.500000, -155.500000) "></path>
            </g>
        </g>
    </g>
</svg>