<?xml version="1.0" encoding="UTF-8"?>
<svg viewBox="0 0 319 687" version="1.1" xmlns="http://www.w3.org/2000/svg" xmlns:xlink="http://www.w3.org/1999/xlink">
    <!-- Generator: Sketch 57.1 (83088) - https://sketch.com -->
    <title>Description_Box</title>
    <desc>Created with Sketch.</desc>
    <g id="Round-7" stroke="none" stroke-width="1" fill="none" fill-rule="evenodd">
        <g id="Mindmap_Assets" transform="translate(-905.000000, -1057.000000)" fill="#FFFFFF">
            <g id="Description_Box" transform="translate(905.000000, 1057.000000)">
                <path d="M64.8997033,38.7223282 L64.8997033,29.6999992 C64.8997033,13.2971426 78.1968459,3.01315588e-15 94.5997026,0 L289.300001,0 C305.702857,5.39557797e-16 319,13.2971426 319,29.6999992 L319,657.300001 C319,673.702857 305.702857,687 289.300001,687 L29.6999992,687 C13.2971426,687 2.00877059e-15,673.702857 0,657.300001 L0,98.1223267 C-2.00877059e-15,81.71947 13.2971426,68.4223274 29.6999992,68.4223274 L35.1997041,68.4223274 C51.6025608,68.4223274 64.8997033,55.1251849 64.8997033,38.7223282 Z" id="Rectangle" transform="translate(159.500000, 343.500000) scale(1, -1) translate(-159.500000, -343.500000) "></path>
            </g>
        </g>
    </g>
</svg>